<svg width="126" height="26" viewBox="0 0 126 26" fill="none" xmlns="http://www.w3.org/2000/svg">
<rect width="19" height="23" fill="#1C1B1B"/>
<path d="M2.66406 5.6H6.20606V15.632L13.5541 5.6H16.8981V21H13.3781V10.99L6.03006 21H2.66406V5.6Z" fill="#FFF8F8"/>
<path d="M20.4684 9.164H23.8784V13.784H29.0264V9.164H32.4584V21H29.0264V16.578H23.8784V21H20.4684V9.164ZM45.6878 11.98H41.6838V21H38.2738V11.98H34.2698V9.164H45.6878V11.98ZM58.5291 15.126C58.5291 15.17 58.5071 15.478 58.4631 16.05H49.5091C49.6704 16.7833 50.0518 17.3627 50.6531 17.788C51.2544 18.2133 52.0024 18.426 52.8971 18.426C53.5131 18.426 54.0558 18.338 54.5251 18.162C55.0091 17.9713 55.4564 17.678 55.8671 17.282L57.6931 19.262C56.5784 20.538 54.9504 21.176 52.8091 21.176C51.4744 21.176 50.2938 20.9193 49.2671 20.406C48.2404 19.878 47.4484 19.152 46.8911 18.228C46.3338 17.304 46.0551 16.2553 46.0551 15.082C46.0551 13.9233 46.3264 12.882 46.8691 11.958C47.4264 11.0193 48.1818 10.2933 49.1351 9.78C50.1031 9.252 51.1811 8.988 52.3691 8.988C53.5278 8.988 54.5764 9.23733 55.5151 9.736C56.4538 10.2347 57.1871 10.9533 57.7151 11.892C58.2578 12.816 58.5291 13.894 58.5291 15.126ZM52.3911 11.584C51.6138 11.584 50.9611 11.804 50.4331 12.244C49.9051 12.684 49.5824 13.2853 49.4651 14.048H55.2951C55.1778 13.3 54.8551 12.706 54.3271 12.266C53.7991 11.8113 53.1538 11.584 52.3911 11.584ZM68.1338 8.988C69.2338 8.988 70.2312 9.24467 71.1258 9.758C72.0352 10.2567 72.7465 10.968 73.2598 11.892C73.7732 12.8013 74.0298 13.8647 74.0298 15.082C74.0298 16.2993 73.7732 17.37 73.2598 18.294C72.7465 19.2033 72.0352 19.9147 71.1258 20.428C70.2312 20.9267 69.2338 21.176 68.1338 21.176C66.6232 21.176 65.4352 20.6993 64.5698 19.746V25.268H61.1378V9.164H64.4158V10.528C65.2665 9.50133 66.5058 8.988 68.1338 8.988ZM67.5398 18.36C68.4198 18.36 69.1385 18.0667 69.6958 17.48C70.2678 16.8787 70.5538 16.0793 70.5538 15.082C70.5538 14.0847 70.2678 13.2927 69.6958 12.706C69.1385 12.1047 68.4198 11.804 67.5398 11.804C66.6598 11.804 65.9338 12.1047 65.3618 12.706C64.8045 13.2927 64.5258 14.0847 64.5258 15.082C64.5258 16.0793 64.8045 16.8787 65.3618 17.48C65.9338 18.0667 66.6598 18.36 67.5398 18.36ZM82.8372 12.948C84.3772 12.9627 85.5579 13.3147 86.3792 14.004C87.2006 14.6787 87.6112 15.6393 87.6112 16.886C87.6112 18.1913 87.1492 19.2107 86.2252 19.944C85.3159 20.6627 84.0326 21.022 82.3752 21.022L76.4352 21V9.164H79.8452V12.948H82.8372ZM82.0672 18.58C82.7272 18.5947 83.2332 18.4553 83.5852 18.162C83.9372 17.8687 84.1132 17.4287 84.1132 16.842C84.1132 16.27 83.9372 15.852 83.5852 15.588C83.2479 15.324 82.7419 15.1847 82.0672 15.17L79.8452 15.148V18.58H82.0672ZM101.262 15.126C101.262 15.17 101.24 15.478 101.196 16.05H92.2415C92.4029 16.7833 92.7842 17.3627 93.3855 17.788C93.9869 18.2133 94.7349 18.426 95.6295 18.426C96.2455 18.426 96.7882 18.338 97.2575 18.162C97.7415 17.9713 98.1889 17.678 98.5995 17.282L100.426 19.262C99.3109 20.538 97.6829 21.176 95.5415 21.176C94.2069 21.176 93.0262 20.9193 91.9995 20.406C90.9729 19.878 90.1809 19.152 89.6235 18.228C89.0662 17.304 88.7875 16.2553 88.7875 15.082C88.7875 13.9233 89.0589 12.882 89.6015 11.958C90.1589 11.0193 90.9142 10.2933 91.8675 9.78C92.8355 9.252 93.9135 8.988 95.1015 8.988C96.2602 8.988 97.3089 9.23733 98.2475 9.736C99.1862 10.2347 99.9195 10.9533 100.448 11.892C100.99 12.816 101.262 13.894 101.262 15.126ZM95.1235 11.584C94.3462 11.584 93.6935 11.804 93.1655 12.244C92.6375 12.684 92.3149 13.2853 92.1975 14.048H98.0275C97.9102 13.3 97.5875 12.706 97.0595 12.266C96.5315 11.8113 95.8862 11.584 95.1235 11.584ZM110.866 8.988C111.966 8.988 112.964 9.24467 113.858 9.758C114.768 10.2567 115.479 10.968 115.992 11.892C116.506 12.8013 116.762 13.8647 116.762 15.082C116.762 16.2993 116.506 17.37 115.992 18.294C115.479 19.2033 114.768 19.9147 113.858 20.428C112.964 20.9267 111.966 21.176 110.866 21.176C109.356 21.176 108.168 20.6993 107.302 19.746V25.268H103.87V9.164H107.148V10.528C107.999 9.50133 109.238 8.988 110.866 8.988ZM110.272 18.36C111.152 18.36 111.871 18.0667 112.428 17.48C113 16.8787 113.286 16.0793 113.286 15.082C113.286 14.0847 113 13.2927 112.428 12.706C111.871 12.1047 111.152 11.804 110.272 11.804C109.392 11.804 108.666 12.1047 108.094 12.706C107.537 13.2927 107.258 14.0847 107.258 15.082C107.258 16.0793 107.537 16.8787 108.094 17.48C108.666 18.0667 109.392 18.36 110.272 18.36Z" fill="#555555"/>
</svg>
